<svg width="25" height="25" viewBox="0 0 25 25" fill="none" xmlns="http://www.w3.org/2000/svg">
<path d="M9.45881 8.31606C9.43985 8.54147 9.11185 8.59847 9.00636 8.39468L8.43828 7.29755C8.40154 7.22646 8.32669 7.17895 8.24203 7.1728L6.93478 7.07797C6.69194 7.06037 6.63055 6.75589 6.8501 6.65794L8.0319 6.13061C8.10843 6.09645 8.15971 6.02703 8.16626 5.94842L8.26843 4.73482C8.28739 4.50941 8.61539 4.45241 8.72088 4.6562L9.28896 5.75334C9.3257 5.82443 9.40046 5.87195 9.48521 5.87808L10.7925 5.97291C11.0353 5.99051 11.0967 6.29499 10.8771 6.39294L9.69534 6.92027C9.61872 6.95445 9.56753 7.02385 9.56098 7.10247L9.45881 8.31606Z" fill="white"/>
<path d="M5.70599 9.1442C5.67434 9.25336 5.50749 9.25336 5.47584 9.1442L5.30537 8.55649C5.29436 8.51841 5.26227 8.48867 5.22128 8.47842L4.58821 8.32018C4.47061 8.29079 4.47061 8.13591 4.58821 8.10652L5.22128 7.94828C5.26227 7.93802 5.29436 7.90828 5.30537 7.87021L5.47584 7.28249C5.50749 7.17333 5.67434 7.17333 5.70599 7.28249L5.87646 7.87021C5.88747 7.90828 5.91951 7.93802 5.96055 7.94828L6.59362 8.10652C6.71122 8.13591 6.71122 8.29079 6.59362 8.32018L5.96055 8.47842C5.91951 8.48867 5.88747 8.51841 5.87646 8.55649L5.70599 9.1442Z" fill="white"/>
<path d="M7.88782 12.5199C7.85616 12.6291 7.68931 12.6291 7.65766 12.5199L7.48719 11.9322C7.47618 11.8941 7.4441 11.8644 7.4031 11.8541L6.77003 11.6959C6.65243 11.6665 6.65243 11.5116 6.77003 11.4822L7.4031 11.324C7.4441 11.3138 7.47618 11.284 7.48719 11.2459L7.65766 10.6582C7.68931 10.5491 7.85616 10.5491 7.88782 10.6582L8.05829 11.2459C8.0693 11.284 8.10133 11.3138 8.14238 11.324L8.77544 11.4822C8.89305 11.5116 8.89305 11.6665 8.77544 11.6959L8.14238 11.8541C8.10133 11.8644 8.0693 11.8941 8.05829 11.9322L7.88782 12.5199Z" fill="white"/>
<path d="M6.03127 11.1969C6.01017 11.2697 5.89894 11.2697 5.87783 11.1969L5.76419 10.8051C5.75684 10.7797 5.73546 10.7599 5.70813 10.753L5.28608 10.6475C5.20768 10.6279 5.20768 10.5247 5.28608 10.5051L5.70813 10.3996C5.73546 10.3928 5.75684 10.3729 5.76419 10.3476L5.87783 9.95574C5.89894 9.88297 6.01017 9.88297 6.03127 9.95574L6.14492 10.3476C6.15226 10.3729 6.17361 10.3928 6.20098 10.3996L6.62302 10.5051C6.70142 10.5247 6.70142 10.6279 6.62302 10.6475L6.20098 10.753C6.17361 10.7599 6.15226 10.7797 6.14492 10.8051L6.03127 11.1969Z" fill="white"/>
<path d="M11.1222 9.84666C11.101 9.91944 10.9898 9.91944 10.9687 9.84666L10.8551 9.45485C10.8477 9.42947 10.8263 9.40964 10.799 9.40281L10.377 9.29731C10.2986 9.27772 10.2986 9.17447 10.377 9.15487L10.799 9.04938C10.8263 9.04254 10.8477 9.02272 10.8551 8.99733L10.9687 8.60552C10.9898 8.53275 11.101 8.53275 11.1222 8.60552L11.2358 8.99733C11.2431 9.02272 11.2645 9.04254 11.2919 9.04938L11.7139 9.15487C11.7923 9.17447 11.7923 9.27772 11.7139 9.29731L11.2919 9.40281C11.2645 9.40964 11.2431 9.42947 11.2358 9.45485L11.1222 9.84666Z" fill="white"/>
<path d="M18.3182 18.003L17.5909 18.6782M8.15777 9.04228L19.9624 19.0877C20.2555 19.3371 20.2654 19.7629 19.9843 20.0239V20.0239C19.7043 20.2839 19.2496 20.2777 18.9805 20.008C14.9047 15.9231 7.72842 8.70747 8.15777 9.04228Z" stroke="white"/>
</svg>
